:SAMPLES-PER-SECOND 30
:FULLY-SPECIFIED
:DEGREES
81
root  31.6171 37.1243 1.29915 -152.901 78.1569 -150.04
RightUpLeg  -27.4765 0.624472 6.67931
RightLeg  21.1031 1.31217 -3.37509
RightFoot  5.45379 0.0641751 -0.441996
RightToes  5.82063e-011 -1.59028e-015 9.93923e-017
Spine  8.40226 -6.19809 -0.875799
Spine1  5.73051 -8.91915 12.9762
HEad  -27.2922 4.03923 2.40048
LeftShoulder1  9.93923e-017 0 1.22299e-017
LeftArm  13.1052 4.31822 -84.8867
LeftForeArm  -30.8907 -38.0611 23.4554
LeftHand  0.713879 5.55849 4.68883
RightShoulder  1.98785e-016 -4.96962e-017 1.55301e-017
RightArm  -4.93965 -62.0755 68.9714
RightForeArm  -6.16232 7.4862 5.56419
RightHand  1.42622 -12.3233 -5.43167
LeftUpLeg  15.65 -10.061 10.8985
LeftLeg  31.2804 -6.67804 2.34337
LeftFoot  17.3234 2.12597 -7.70319
LeftToes  2.21007e-009 5.55039e-011 -9.07147e-011
82
root  33.3697 37.0733 1.53624 -147.376 77.6954 -143.752
RightUpLeg  -26.0476 0.0960232 9.19052
RightLeg  25.2601 2.33243 -3.69614
RightFoot  1.50767 0.25984 -2.0317
RightToes  5.82063e-011 -1.59028e-015 9.93923e-017
Spine  9.26136 -5.69471 1.4847
Spine1  6.01594 -7.88107 12.8665
HEad  -26.6765 2.92568 3.06163
LeftShoulder1  9.93923e-017 0 1.22299e-017
LeftArm  19.4875 9.51433 -87.7281
LeftForeArm  -36.4347 -30.7735 20.4769
LeftHand  0.71045 5.45756 3.71988
RightShoulder  1.98785e-016 -4.96962e-017 1.55301e-017
RightArm  -10.2786 -55.4372 75.3729
RightForeArm  -4.86131 7.44561 5.46837
RightHand  1.37442 -11.9775 -5.38771
LeftUpLeg  10.2984 -10.152 12.4733
LeftLeg  41.7228 -6.03643 4.89274
LeftFoot  24.8834 1.77337 -4.82903
LeftToes  2.21007e-009 5.55039e-011 -9.07147e-011
83
root  35.1841 37.3317 1.7489 -145.587 77.6472 -141.774
RightUpLeg  -23.1638 -0.341246 10.5204
RightLeg  26.2441 2.70498 -3.68657
RightFoot  -2.01976 0.231398 -2.34496
RightToes  5.82063e-011 -1.59028e-015 9.93923e-017
Spine  8.8801 -5.09647 2.68701
Spine1  6.31577 -6.90404 12.2508
HEad  -25.2832 1.67866 3.79703
LeftShoulder1  9.93923e-017 0 1.22299e-017
LeftArm  18.1867 14.3391 -89.1751
LeftForeArm  -34.3113 -23.7325 11.6147
LeftHand  0.744879 5.46751 1.56453
RightShoulder  1.98785e-016 -4.96962e-017 1.55301e-017
RightArm  -11.1896 -48.0542 79.7882
RightForeArm  -7.10982 9.31481 4.17654
RightHand  1.3949 -11.7948 -6.3531
LeftUpLeg  3.89366 -10.5179 12.3007
LeftLeg  50.4247 -6.41742 6.75538
LeftFoot  24.5278 1.30261 -3.54038
LeftToes  2.21007e-009 5.55039e-011 -9.07147e-011
84
root  37.1008 37.8233 1.92154 -146.804 77.8674 -142.98
RightUpLeg  -19.0158 -0.644221 10.9054
RightLeg  24.7447 2.7029 -3.42898
RightFoot  -4.14368 0.164206 -2.08384
RightToes  5.82063e-011 -1.59028e-015 9.93923e-017
Spine  7.7957 -4.50356 3.5146
Spine1  6.49372 -5.92127 10.6833
HEad  -23.3959 0.116377 4.50206
LeftShoulder1  9.93923e-017 0 1.22299e-017
LeftArm  3.16514 19.0477 -88.3705
LeftForeArm  -17.1238 -14.3418 -1.5911
LeftHand  0.834602 5.80582 -1.6912
RightShoulder  1.98785e-016 -4.96962e-017 1.55301e-017
RightArm  -3.82286 -41.303 83.0503
RightForeArm  -17.9686 14.0246 -0.478614
RightHand  1.51274 -11.9786 -8.12584
LeftUpLeg  -2.46678 -11.1313 10.9638
LeftLeg  56.0113 -7.77654 6.55252
LeftFoot  20.1232 0.932606 -2.89884
LeftToes  2.21007e-009 5.55039e-011 -9.07147e-011
85
root  39.0124 38.2838 2.0476 -148.856 78.5509 -144.911
RightUpLeg  -14.5858 0.0402213 10.661
RightLeg  22.8388 2.131 -3.08446
RightFoot  -6.02732 0.130197 -2.10763
RightToes  5.82063e-011 -1.59028e-015 9.93923e-017
Spine  6.8491 -3.84291 4.64286
Spine1  6.66712 -4.64378 8.302
HEad  -21.7274 -1.67365 5.21213
LeftShoulder1  9.93923e-017 0 1.22299e-017
LeftArm  -8.0965 24.1414 -86.2555
LeftForeArm  -2.55211 -6.29832 -6.9017
LeftHand  0.969898 6.83315 -5.402
RightShoulder  1.98785e-016 -4.96962e-017 1.55301e-017
RightArm  11.9883 -35.6207 85.5594
RightForeArm  -37.5398 18.4677 -10.7718
RightHand  1.67022 -12.3739 -9.80861
LeftUpLeg  -8.13736 -11.569 9.08735
LeftLeg  58.3054 -9.05327 5.06956
LeftFoot  16.4991 0.934988 -3.32572
LeftToes  2.21007e-009 5.55039e-011 -9.07147e-011
86
root  40.9119 38.6208 2.14716 -150.132 80.0878 -146.075
RightUpLeg  -10.2421 1.32575 10.0696
RightLeg  21.0966 1.89757 -2.53101
RightFoot  -7.97551 0.113358 -2.54968
RightToes  5.82063e-011 -1.59028e-015 9.93923e-017
Spine  6.16622 -2.89296 5.83839
Spine1  6.72706 -2.96895 5.43116
HEad  -20.735 -3.29924 5.74282
LeftShoulder1  9.93923e-017 0 1.22299e-017
LeftArm  -13.58 29.9555 -83.1406
LeftForeArm  8.53898 -3.74628 -6.18958
LeftHand  1.07626 8.24805 -8.40784
RightShoulder  1.98785e-016 -4.96962e-017 1.55301e-017
RightArm  20.1682 -30.4429 86.436
RightForeArm  -46.9641 21.5199 -20.0027
RightHand  1.75228 -12.5918 -10.5654
LeftUpLeg  -12.9995 -11.1497 7.03027
LeftLeg  57.4997 -9.59024 3.87922
LeftFoot  14.2956 0.980593 -3.79569
LeftToes  2.21007e-009 5.55039e-011 -9.07147e-011
87
root  42.8193 38.8946 2.23313 -149.069 82.3384 -145.072
RightUpLeg  -5.96539 1.82048 9.38864
RightLeg  18.9898 3.30053 -1.61908
RightFoot  -9.20477 0.107089 -3.143
RightToes  5.82063e-011 -1.59028e-015 9.93923e-017
Spine  5.60204 -1.6648 6.8237
Spine1  6.52981 -1.1481 2.48372
HEad  -20.3805 -4.41387 5.85641
LeftShoulder1  9.93923e-017 0 1.22299e-017
LeftArm  -14.7988 36.6209 -78.935
LeftForeArm  14.0301 -2.8994 -5.56486
LeftHand  1.1194 9.07754 -9.31864
RightShoulder  1.98785e-016 -4.96962e-017 1.55301e-017
RightArm  16.9265 -25.1269 85.6949
RightForeArm  -42.4379 25.7182 -24.1448
RightHand  1.72532 -12.4625 -10.5155
LeftUpLeg  -17.15 -9.8332 5.20289
LeftLeg  53.7172 -9.32596 3.45364
LeftFoot  11.3998 0.914364 -3.99994
LeftToes  2.21007e-009 5.55039e-011 -9.07147e-011
88
root  44.7068 39.0808 2.28884 -140.488 84.5245 -136.594
RightUpLeg  -1.96224 1.59123 8.89789
RightLeg  17.0097 5.79769 -0.539757
RightFoot  -9.77416 0.106319 -3.65643
RightToes  5.82063e-011 -1.59028e-015 9.93923e-017
Spine  5.18198 -0.426388 8.04924
Spine1  6.33054 0.514178 -0.0593089
HEad  -20.4414 -4.97855 5.65176
LeftShoulder1  9.93923e-017 0 1.22299e-017
LeftArm  -8.57344 43.6784 -73.9308
LeftForeArm  9.51427 -3.52835 -5.98069
LeftHand  1.12016 8.88924 -8.27828
RightShoulder  1.98785e-016 -4.96962e-017 1.55301e-017
RightArm  14.6138 -19.5575 84.3735
RightForeArm  -38.3407 30.338 -27.4104
RightHand  1.68955 -12.2505 -10.6017
LeftUpLeg  -20.3877 -8.05672 4.16544
LeftLeg  47.0682 -8.74974 2.99082
LeftFoot  7.92014 0.905436 -4.70169
LeftToes  2.21007e-009 5.55039e-011 -9.07147e-011
89
root  46.5756 39.1204 2.31088 -119.661 85.8573 -115.713
RightUpLeg  1.89098 1.11829 8.72989
RightLeg  15.5879 8.42905 0.390874
RightFoot  -10.4535 0.0962018 -4.18951
RightToes  5.82063e-011 -1.59028e-015 9.93923e-017
Spine  4.79936 0.665561 9.61529
Spine1  6.5915 1.91735 -1.99354
HEad  -20.7215 -5.18131 5.47744
LeftShoulder1  9.93923e-017 0 1.22299e-017
LeftArm  -0.0722067 50.2129 -68.1951
LeftForeArm  1.89768 -4.37683 -6.63371
LeftHand  1.09091 8.26591 -7.14662
RightShoulder  1.98785e-016 -4.96962e-017 1.55301e-017
RightArm  14.1595 -13.9004 82.9444
RightForeArm  -36.4757 34.0403 -30.4341
RightHand  1.73299 -12.2512 -11.4097
LeftUpLeg  -22.2021 -6.1268 3.87819
LeftLeg  37.6068 -8.41368 1.94081
LeftFoot  6.07924 0.947368 -5.39973
LeftToes  2.21007e-009 5.55039e-011 -9.07147e-011
90
root  48.4405 39.0616 2.32954 -93.3746 86.2963 -89.2888
RightUpLeg  6.00948 0.586498 8.41741
RightLeg  13.8876 10.5927 1.01166
RightFoot  -11.2841 0.0748345 -4.75924
RightToes  5.82063e-011 -1.59028e-015 9.93923e-017
Spine  4.21881 1.6403 10.6943
Spine1  7.44148 3.09866 -3.50968
HEad  -21.0576 -5.22657 5.54625
LeftShoulder1  9.93923e-017 0 1.22299e-017
LeftArm  5.75848 55.4601 -61.8838
LeftForeArm  -1.61935 -5.21453 -6.47697
LeftHand  1.06423 7.90826 -6.98482
RightShoulder  1.98785e-016 -4.96962e-017 1.55301e-017
RightArm  13.8588 -8.74114 81.6366
RightForeArm  -35.4679 36.6017 -32.7164
RightHand  1.82982 -12.4193 -12.5607
LeftUpLeg  -22.5256 -4.68926 3.72249
LeftLeg  25.5974 -7.7288 0.826207
LeftFoot  6.47674 0.982118 -5.49035
LeftToes  2.21007e-009 5.55039e-011 -9.07147e-011
91
root  50.2935 38.9561 2.35722 -71.7441 86.3276 -67.6535
RightUpLeg  10.1146 0.142361 7.75044
RightLeg  11.7439 11.9329 1.2272
RightFoot  -11.8634 0.0533876 -4.97164
RightToes  5.82063e-011 -1.59028e-015 9.93923e-017
Spine  3.46398 2.46424 10.9677
Spine1  8.53971 4.09048 -4.85092
HEad  -21.4233 -5.23247 5.82307
LeftShoulder1  9.93923e-017 0 1.22299e-017
LeftArm  9.21654 59.0639 -55.4015
LeftForeArm  -1.20023 -5.95879 -5.81222
LeftHand  1.06375 7.93241 -7.28414
RightShoulder  1.98785e-016 -4.96962e-017 1.55301e-017
RightArm  13.3331 -4.64943 80.5184
RightForeArm  -35.019 38.172 -34.2036
RightHand  1.91066 -12.5833 -13.3815
LeftUpLeg  -22.0159 -3.77649 3.11884
LeftLeg  12.3575 -6.3557 0.262388
LeftFoot  7.04756 1.03485 -5.61422
LeftToes  2.21007e-009 5.55039e-011 -9.07147e-011
